<?xml version="1.0" encoding="utf-8"?><svg xmlns="http://www.w3.org/2000/svg" xmlns:xlink="http://www.w3.org/1999/xlink"><symbol viewBox="0 0 19 8" id="arrow" xmlns="http://www.w3.org/2000/svg"><path d="M18.354 4.354a.5.5 0 000-.708L15.172.464a.5.5 0 10-.708.708L17.293 4l-2.829 2.828a.5.5 0 10.708.708l3.182-3.182zM0 4.5h18v-1H0v1z"/></symbol><symbol viewBox="0 0 20 20" id="cat3" xmlns="http://www.w3.org/2000/svg"><path d="M6.667 14.665a.5.5 0 000-1v1zM2.5 5H3h-.5zM12 7.5a.5.5 0 001 0h-1zm-7-5V2v.5zm10.417 5.001v.5-.5zM17.5 9.584H17h.5zm-2.078 2.083v.5-.5zm-7.926 0v-.5.5zm-.83.833h.5v-.002l-.5.002zm0 4.167h.5-.5zm0-3.003H4.584v1h2.084v-1zm-2.083 0A1.583 1.583 0 013 12.082H2a2.583 2.583 0 002.583 2.584v-1zM3 12.082v-7.08H2v7.08h1zM13 7.5V3.333h-1V7.5h1zm0-4.167C13 2.597 12.403 2 11.667 2v1c.184 0 .333.15.333.333h1zM11.667 2H5v1h6.666V2zM5 2a3 3 0 00-2.122.879l.707.707A2 2 0 015.001 3V2zm-2.122.879A3 3 0 002 5h1a2 2 0 01.586-1.415l-.707-.707zM2 5a3 3 0 003 3v-1a2 2 0 01-2-2H2zm3 3h10.417v-1H5.001v1zm10.417 0c.42 0 .823.167 1.12.464l.707-.707A2.583 2.583 0 0015.417 7v1zm1.12.464c.296.297.463.7.463 1.119h1c0-.685-.272-1.342-.756-1.826l-.708.707zM17 9.585c0 .42-.165.821-.461 1.118l.708.706A2.579 2.579 0 0018 9.583l-1 .002zm-.461 1.118a1.58 1.58 0 01-1.117.464v1a2.58 2.58 0 001.825-.758l-.708-.706zm-1.117.464H7.496v1h7.926v-1zm-7.926 0a1.33 1.33 0 00-.942.391l.709.706a.33.33 0 01.234-.097l-.001-1zm-.942.391c-.25.25-.389.59-.387.944l1-.004a.33.33 0 01.096-.234l-.709-.706zm-.387.942v4.167h1V12.5h-1zm0 4.167c0 .736.597 1.333 1.333 1.333v-1a.333.333 0 01-.333-.333h-1zM7.5 18h7.917v-1H7.5v1zm7.917 0A2.583 2.583 0 0018 15.417h-1C17 16.29 16.291 17 15.417 17v1zM18 15.417V9.584h-1v5.833h1z"/></symbol><symbol viewBox="0 0 10 18" id="shevron-left" xmlns="http://www.w3.org/2000/svg"><path d="M9 1L1 9l8 8"/></symbol><symbol viewBox="0 0 10 18" id="shevron-right" xmlns="http://www.w3.org/2000/svg"><path d="M1 1l8 8-8 8"/></symbol></svg>