<?xml version="1.0" encoding="utf-8"?><svg xmlns="http://www.w3.org/2000/svg" xmlns:xlink="http://www.w3.org/1999/xlink"><symbol fill="none" viewBox="0 0 81 20" id="MarkWeber" xmlns="http://www.w3.org/2000/svg"><g clip-path="url(#aclip0_1280_61391)" fill-rule="evenodd" clip-rule="evenodd"><path d="M43.52 4.843c.196.2 1.948 4.997 2.131 5.589.183.634.44 1.242.768 1.811.607.143.664-.485.847-.982.997-2.688 2.509-6.608 3.264-9.249.527-1.278.573-1.622-.377-1.622-.951 0-.848.64-1.226 1.469-.332 1.574-1.615 4.902-2.085 6.43 0 .2 0 .2-.24.2-.79-2.273-1.707-5.056-2.6-7.305-.24-.439-.664-.533-.95.45-.482 1.563-1.146 3.422-1.661 4.937 0 0-.619 1.919-.665 2.013a6.033 6.033 0 01-.71-1.764c-.71-1.812-1.328-3.765-1.935-5.577-.15-.344-.15-.545-.481-.746a1.92 1.92 0 00-1.043-.095c-.939.154-.332.936-.137 1.516 1.145 3.185 2.416 7.01 3.688 10.041.03.075.078.141.14.19a.44.44 0 00.443.062.45.45 0 00.184-.145c.184-.367 2.508-7.223 2.646-7.223zM.177.593a.965.965 0 00.046.592c.195.829-.378 10.278-.23 10.657.464.216.984.266 1.478.142.23-.248.138-.485.138-.876 0-1.67.137-3.28.137-4.997.057-.64.103-1.077.103-1.468s0-.344.092-.438c.091-.095 1.592 2.605 1.74 2.9.287.581.848 1.47 1.226 2.156.573 1.077.86.343.997.095.332-.439 2.897-5.092 3.08-5.187.172.19.172 4.843.172 5.187 0 2.546-.286 2.794 1.272 2.688.48 0 .527-.391.48-.83V8.622a116.07 116.07 0 01-.217-6.607c0-.249.092-1.184.092-1.326A.902.902 0 009.638.487c-.333.2-.424.639-.665.935-.962 1.764-2.256 3.765-3.16 5.435-.333.592-.333.39-.62 0-.618-.935-1.42-2.546-1.98-3.481L2.066 1.422A4.061 4.061 0 001.46.486C1.14.25.51.44.177.593zM60.615 6.073a3.128 3.128 0 011.4-.678 3.073 3.073 0 011.544.086c1.512.687 1.706 2.996 1.042 4.121-.283.439-.69.775-1.166.964-.476.189-.997.22-1.491.09a3.38 3.38 0 01-1.329-.592v-3.99zm0-1.67a35.025 35.025 0 010-3.871c0-.533-.183-.628-.664-.438-1.145.497-1.145.296-.985 1.373.092.545 0 6.856 0 7.744 0 1.753-.24 2.155 2.222 2.89a5.146 5.146 0 002.127.011 5.224 5.224 0 001.962-.852c2.416-2.049 1.752-7.827-2.657-7.389a8.551 8.551 0 00-1.146.142c-.148.047-.71.39-.778.39h-.08zM27.214 11.947a4.72 4.72 0 00.149-1.907 14.418 14.418 0 010-2.013c.137 0 .286.249.572.545.287.296 2.646 2.842 3.024 3.126.132.127.29.22.464.271.173.052.356.06.533.025.332 0 .859 0 1.042-.237 0-.343-.664-.888-.95-1.184a18.62 18.62 0 01-.986-1.077 20.569 20.569 0 01-2.039-2.144c0-.106 2.6-2.368 3.081-2.794.184-.202.378-.249.333-.545a2.974 2.974 0 00-1.81 0c-.23.107-1.798 1.575-2.222 1.966-.138.142-.95 1.03-1.042.982-.138-.45 0-6.571-.092-6.915-.092-.343-1.707.201-1.66.794.09.416.135.84.137 1.267v8.466c0 .296-.092 1.184.103 1.326.446.118.91.134 1.363.048zM14.88 7.933c.527-.142 2.291.296 2.371.781a9.043 9.043 0 010 1.575c-.332.438-2.611 1.315-3.367-.248a1.704 1.704 0 010-1.421c.11-.181.256-.335.427-.454.172-.118.366-.198.57-.233zm2.417-.592a4.074 4.074 0 00-1.466-.628 5.256 5.256 0 00-1.947.142 2.599 2.599 0 00-1.346.947A2.746 2.746 0 0012 9.39c-.01.575.159 1.138.481 1.607.323.47.782.819 1.311.997.906.32 1.89.32 2.795 0 .195-.094.573-.343.71-.39.138-.048.195.343.378.438.183.094 1.042 0 1.283-.237.24-.237.286-.201.137-.545a2.524 2.524 0 01-.229-1.468V6.263c.06-.5-.058-1.005-.332-1.42-.905-1.86-6.356-1.126-5.921.45.435 1.574 1.145-.546 3.55-.25 1.294.143 1.157 1.421 1.157 2.298h-.023zM73.36 7.105h-3.928c.053-.486.268-.938.607-1.279.371-.336.837-.54 1.329-.58.256-.022.514.01.758.093s.47.217.662.392c.195.166.348.376.447.615.1.24.143.5.126.759zm-4.03 1.267c.286-.142 4.58 0 5.36 0 .778 0 .423-2.64-.997-3.718a3.731 3.731 0 00-4.078-.332 3.896 3.896 0 00-1.535 1.524 4.074 4.074 0 00-.515 2.135 4.138 4.138 0 00.473 2.085 3.97 3.97 0 001.44 1.539c1.271.888 4.684.84 5.108-.533.527-1.765-.71-.782-1.145-.592a4.003 4.003 0 01-1.145.296c-2.532.296-3.15-2.013-2.967-2.404zM52.14 7.1c.04-.506.263-.977.624-1.322.36-.344.833-.536 1.324-.537.985-.107 2.13.782 1.935 1.86h-3.882zm-.194 1.184h5.314c.619 0 .516-.39.47-.876a3.891 3.891 0 00-.575-1.85 3.726 3.726 0 00-1.383-1.313 3.579 3.579 0 00-3.631.12c-.611.373-1.11.913-1.444 1.56a4.103 4.103 0 00-.446 2.11 3.81 3.81 0 00.453 2.077c.344.631.86 1.144 1.482 1.476 1.615 1.03 4.788.592 5.074-.58 0-.344.23-1.184-.286-.983a6.2 6.2 0 01-2.004.746 2.774 2.774 0 01-1.123-.076 2.825 2.825 0 01-1.008-.516c-.412-.344-1.076-1.374-.893-1.895zM77.67 11.994c.286-.296.24-.438.24-.876V9.934c0-1.563-.286-4.156 1.466-4.547.378-.095.47.237.95.142.285-.263.498-.598.62-.971 0-.746-1.146-.888-2.188-.403-.332.154-.607.687-.848.734 0-.438.092-.627-.194-1.018a2.529 2.529 0 00-1.043.343c-.47.237-.561.237-.47.83.092.591 0 4.653 0 5.624.046 1.48.046 1.433 1.467 1.326zM21.828 11.947v-.095c.133-1.203.167-2.415.103-3.623 0-.936.229-2.451 1.225-2.748.802-.296.848.486 1.375 0 1.225-1.326-.424-1.859-1.42-1.42-.997.438-.86.781-1.146.876a2.448 2.448 0 010-.58c0-.25-.103-.25-.195-.391-.367-.003-.728.1-1.042.296-.47.19-.618.237-.47.829.101.908.132 1.822.092 2.735v2.7c.103 1.468-.091 1.575 1.478 1.42z" fill="#011F3A"/><path d="M43.18 13.523c-1.891.24-3.75.698-5.544 1.361-.561.25-1.145.391-1.706.64-1.146.438-2.222.829-3.356 1.279-.378.142-3.081.97-3.55 1.077-2.291.58-5.727 1.267-7.915.237-1.042-.533-1.145 1.125 1.225 1.717a9.372 9.372 0 004.17-.19c1.145-.248 2.52-.686 3.607-1.03 1.088-.343 2.371-.734 3.55-1.077.287-.107.516-.201.848-.296l1.753-.545c.332-.095.572-.237.859-.343l1.81-.438c.332-.095.572-.19.858-.296a33.281 33.281 0 017.296-.782c.607 0 1.512.154 2.13.249 1.146.142.894-.486.138-.888a11.68 11.68 0 00-6.173-.675z" fill="#F9CC46"/></g><defs><clipPath id="aclip0_1280_61391"><path fill="#fff" d="M0 0h80.952v20H0z"/></clipPath></defs></symbol></svg>