<svg width="81" height="20" viewBox="0 0 81 20" fill="none" xmlns="http://www.w3.org/2000/svg">
<g clip-path="url(#clip0_1280_61391)">
<path fill-rule="evenodd" clip-rule="evenodd" d="M43.5209 4.84255C43.7157 5.04385 45.468 9.83959 45.6513 10.4317C45.8338 11.066 46.0915 11.6745 46.4186 12.2434C47.0257 12.3855 47.0829 11.7579 47.2662 11.2606C48.2626 8.57257 49.7745 4.65309 50.5304 2.01248C51.0573 0.733613 51.1031 0.390214 50.1525 0.390214C49.2018 0.390214 49.3049 1.02965 48.9269 1.85854C48.5948 3.43343 47.312 6.76085 46.8424 8.28838C46.8424 8.48968 46.8424 8.48968 46.6019 8.48968C45.8116 6.21615 44.8954 3.43343 44.002 1.18358C43.7615 0.745454 43.3377 0.650723 43.0514 1.63355C42.5703 3.19661 41.906 5.0557 41.3906 6.57139C41.3906 6.57139 40.7721 8.48968 40.7263 8.58441C40.3988 8.03993 40.1589 7.44405 40.0162 6.82005C39.3061 5.00833 38.6876 3.05451 38.0806 1.24279C37.9317 0.899391 37.9317 0.698089 37.5996 0.496786C37.2666 0.369234 36.9066 0.336517 36.5573 0.402055C35.6181 0.555993 36.2251 1.33752 36.4199 1.91774C37.5652 5.10306 38.8365 8.92781 40.1078 11.9592C40.1376 12.0343 40.186 12.1 40.2481 12.1496C40.3102 12.1992 40.3839 12.231 40.4617 12.2419C40.5395 12.2527 40.6187 12.2421 40.6913 12.2112C40.7639 12.1802 40.8273 12.1301 40.8752 12.0658C41.0585 11.6987 43.3835 4.84255 43.5209 4.84255Z" fill="#011F3A"/>
<path fill-rule="evenodd" clip-rule="evenodd" d="M0.177018 0.593025C0.129674 0.790285 0.145756 0.998121 0.222832 1.18509C0.417539 2.01398 -0.155129 11.4634 -0.00623573 11.8423C0.457367 12.0578 0.977146 12.1078 1.47125 11.9844C1.70032 11.7357 1.60869 11.4989 1.60869 11.1081C1.60869 9.4385 1.74613 7.82808 1.74613 6.11108C1.8034 5.47165 1.84921 5.03352 1.84921 4.64276C1.84921 4.252 1.84921 4.29936 1.94084 4.20463C2.03246 4.1099 3.53285 6.80972 3.68175 7.10576C3.96808 7.68598 4.5293 8.57408 4.90726 9.26088C5.47993 10.3384 5.76626 9.60428 5.9037 9.35561C6.23585 8.91748 8.8014 4.26384 8.98465 4.16911C9.15646 4.35857 9.15646 9.01221 9.15646 9.35561C9.15646 11.9015 8.87012 12.1502 10.4278 12.0436C10.9088 12.0436 10.9546 11.6528 10.9088 11.2147C10.9088 10.3858 10.9088 9.45034 10.9088 8.62145C10.7828 6.51369 10.6912 4.1099 10.6912 2.01398C10.6912 1.76532 10.7828 0.829851 10.7828 0.687755C10.6426 0.524397 10.4527 0.415406 10.2444 0.378802C10.0362 0.342199 9.82205 0.380175 9.6375 0.486453C9.30535 0.687755 9.21372 1.12588 8.9732 1.42192C8.01112 3.18628 6.71689 5.18746 5.81207 6.85709C5.47993 7.44915 5.47993 7.24785 5.19359 6.85709C4.57511 5.92162 3.77337 4.3112 3.21216 3.37574L2.06682 1.42192C1.90762 1.08238 1.7033 0.767514 1.45979 0.486453C1.1391 0.249626 0.509166 0.439087 0.177018 0.593025Z" fill="#011F3A"/>
<path fill-rule="evenodd" clip-rule="evenodd" d="M60.6153 6.07346C61.0207 5.73149 61.5016 5.49848 62.0152 5.39518C62.5287 5.29188 63.0591 5.3215 63.5589 5.4814C65.0707 6.16819 65.2654 8.47725 64.6011 9.60218C64.3182 10.0406 63.9107 10.3774 63.4347 10.5662C62.9588 10.7549 62.4379 10.7864 61.9439 10.6561C61.4655 10.5584 61.0125 10.3566 60.6153 10.064V6.07346ZM60.6153 4.40384C60.5439 3.11419 60.5439 1.82137 60.6153 0.531721C60.6153 -0.00113858 60.4321 -0.0958692 59.951 0.093592C58.8057 0.590928 58.8057 0.389625 58.9661 1.46719C59.0577 2.01189 58.9661 8.32331 58.9661 9.21141C58.9661 10.9639 58.7255 11.3665 61.188 12.1007C61.8892 12.2527 62.6129 12.2566 63.3155 12.1122C64.0182 11.9677 64.6853 11.6778 65.2769 11.26C67.6935 9.21141 67.0293 3.43285 62.6197 3.87098C62.2353 3.89248 61.8527 3.93995 61.4744 4.01307C61.3255 4.06044 60.7642 4.40384 60.6955 4.40384H60.6153Z" fill="#011F3A"/>
<path fill-rule="evenodd" clip-rule="evenodd" d="M27.2138 11.9467C27.3929 11.3292 27.4437 10.6795 27.3627 10.0402C27.3158 9.37009 27.3158 8.69733 27.3627 8.0272C27.5001 8.0272 27.649 8.27586 27.9354 8.5719C28.2217 8.86793 30.5811 11.4138 30.9591 11.698C31.0909 11.8249 31.2499 11.9178 31.423 11.9693C31.5962 12.0207 31.7786 12.0292 31.9555 11.994C32.2877 11.994 32.8145 11.994 32.9978 11.7572C32.9978 11.4138 32.3335 10.8691 32.0471 10.5731C31.7608 10.2771 31.3943 9.89813 31.0621 9.49552C30.3336 8.83267 29.6523 8.11639 29.0234 7.35224C29.0234 7.24567 31.6234 4.98398 32.1044 4.55769C32.2877 4.35639 32.4824 4.30902 32.4366 4.01299C31.847 3.82498 31.2164 3.82498 30.6269 4.01299C30.3978 4.11956 28.8287 5.58788 28.405 5.97865C28.2675 6.12074 27.4543 7.00884 27.3627 6.96148C27.2253 6.51151 27.3627 0.389542 27.2711 0.0461436C27.1794 -0.297255 25.5645 0.247446 25.6103 0.839512C25.7001 1.25551 25.7462 1.68031 25.7478 2.10653V10.5731C25.7478 10.8691 25.6561 11.7572 25.8509 11.8993C26.2965 12.0171 26.7615 12.0332 27.2138 11.9467Z" fill="#011F3A"/>
<path fill-rule="evenodd" clip-rule="evenodd" d="M14.8805 7.93276C15.4074 7.79066 17.1712 8.22879 17.2513 8.71429C17.2971 9.23818 17.2971 9.76528 17.2513 10.2892C16.9192 10.7273 14.64 11.6036 13.8841 10.0405C13.7822 9.81847 13.7293 9.57579 13.7293 9.33004C13.7293 9.08428 13.7822 8.8416 13.8841 8.61956C13.994 8.43902 14.1396 8.28452 14.3114 8.16617C14.4831 8.04782 14.677 7.96828 14.8805 7.93276ZM17.2972 7.34069C16.8521 7.03587 16.3543 6.82277 15.8311 6.7131C15.1791 6.63846 14.5194 6.6866 13.8841 6.8552C13.3491 7.01362 12.8773 7.34533 12.5383 7.80157C12.1992 8.2578 12.0107 8.81448 12.0004 9.38974C11.9902 9.965 12.1587 10.5285 12.4813 10.9973C12.8039 11.4662 13.2634 11.8156 13.7924 11.9943C14.6984 12.3137 15.6811 12.3137 16.587 11.9943C16.7818 11.8996 17.1597 11.6509 17.2972 11.6036C17.4346 11.5562 17.4919 11.947 17.6751 12.0417C17.8584 12.1364 18.7174 12.0417 18.9579 11.8049C19.1984 11.568 19.2442 11.6036 19.0953 11.2602C18.8737 10.8071 18.7937 10.294 18.8663 9.79185V6.26313C18.9262 5.76349 18.8081 5.25838 18.5341 4.84217C17.6293 2.98308 12.1775 3.71725 12.6127 5.29214C13.048 6.86704 13.7581 4.74744 16.1633 5.04348C17.4575 5.18557 17.3201 6.46443 17.3201 7.34069H17.2972Z" fill="#011F3A"/>
<path fill-rule="evenodd" clip-rule="evenodd" d="M73.3608 7.1049H69.4323C69.485 6.61869 69.6996 6.16657 70.0393 5.82604C70.4102 5.48977 70.8762 5.28627 71.3679 5.24581C71.6241 5.22394 71.8818 5.25565 72.1258 5.33907C72.3699 5.42248 72.5951 5.55588 72.7881 5.73131C72.9825 5.8966 73.1358 6.10747 73.2354 6.34638C73.335 6.5853 73.378 6.84534 73.3608 7.1049ZM69.3292 8.37192C69.6156 8.22982 73.9106 8.37192 74.6894 8.37192C75.4682 8.37192 75.1132 5.73131 73.693 4.65374C73.1127 4.20653 72.422 3.93808 71.7005 3.87941C70.9791 3.82073 70.2562 3.97421 69.6155 4.32214C68.9748 4.67006 68.4423 5.19823 68.0796 5.84568C67.7168 6.49313 67.5386 7.23344 67.5654 7.98116C67.5382 8.70738 67.7017 9.42766 68.0384 10.0656C68.3752 10.7035 68.8727 11.2354 69.4781 11.6046C70.7494 12.4927 74.1625 12.4453 74.5863 11.0717C75.1132 9.30738 73.8762 10.2902 73.441 10.4797C73.075 10.6348 72.6892 10.7345 72.2956 10.7757C69.7645 11.0717 69.146 8.76268 69.3292 8.37192Z" fill="#011F3A"/>
<path fill-rule="evenodd" clip-rule="evenodd" d="M52.1406 7.10009C52.1808 6.59433 52.4032 6.12261 52.7638 5.77832C53.1244 5.43403 53.5969 5.24227 54.0877 5.241C55.0727 5.13443 56.218 6.02253 56.0233 7.10009H52.1406ZM51.9459 8.28422C52.1864 8.28422 56.6418 8.28422 57.2603 8.28422C57.8788 8.28422 57.7757 7.89346 57.7299 7.40797C57.6964 6.75048 57.4983 6.11326 57.155 5.55871C56.8117 5.00416 56.335 4.55132 55.7716 4.24452C55.2081 3.93773 54.5772 3.78751 53.9407 3.80859C53.3042 3.82966 52.6839 4.02131 52.1406 4.36475C51.5297 4.7379 51.0301 5.27794 50.6967 5.92554C50.3633 6.57314 50.209 7.30322 50.2508 8.03556C50.2022 8.75848 50.3597 9.48028 50.7037 10.1117C51.0477 10.743 51.5632 11.2563 52.1864 11.588C53.8014 12.6181 56.9739 12.18 57.2603 11.0077C57.2603 10.6643 57.4893 9.8236 56.9739 10.0249C56.3514 10.3888 55.6737 10.641 54.9696 10.7709C54.5943 10.8227 54.2127 10.7971 53.8471 10.6955C53.4814 10.5939 53.1389 10.4183 52.8393 10.1788C52.427 9.83544 51.7627 8.80524 51.9459 8.28422Z" fill="#011F3A"/>
<path fill-rule="evenodd" clip-rule="evenodd" d="M77.6697 11.9942C77.956 11.6982 77.9102 11.5561 77.9102 11.118V9.93386C77.9102 8.3708 77.6239 5.77755 79.3763 5.38678C79.7542 5.29205 79.8458 5.62361 80.3269 5.52888C80.6106 5.26575 80.8236 4.93126 80.9454 4.55789C80.9454 3.81189 79.8 3.66979 78.7578 4.15529C78.4256 4.30922 78.1507 4.84208 77.9102 4.88945C77.9102 4.45132 78.0019 4.26186 77.7155 3.87109C77.3484 3.90749 76.993 4.02457 76.6733 4.21449C76.2037 4.45132 76.112 4.45132 76.2037 5.04339C76.2953 5.63545 76.2037 9.69703 76.2037 10.668C76.2495 12.1482 76.2495 12.1008 77.6697 11.9942Z" fill="#011F3A"/>
<path fill-rule="evenodd" clip-rule="evenodd" d="M21.8277 11.9469V11.8521C21.9607 10.6495 21.9951 9.43734 21.9308 8.22868C21.9308 7.29321 22.1599 5.77752 23.1563 5.48149C23.958 5.18546 24.0039 5.96698 24.5307 5.48149C25.7562 4.15526 24.1069 3.6224 23.1105 4.06053C22.1141 4.49866 22.2515 4.84206 21.9652 4.93679C21.9422 4.74411 21.9422 4.54924 21.9652 4.35656C21.9652 4.1079 21.8621 4.1079 21.7705 3.9658C21.4032 3.96271 21.0424 4.0652 20.7282 4.26183C20.2586 4.45129 20.1097 4.49866 20.2586 5.09073C20.3594 5.99855 20.39 6.91322 20.3502 7.82607V10.5259C20.4533 11.9942 20.2586 12.1008 21.8277 11.9469Z" fill="#011F3A"/>
<path fill-rule="evenodd" clip-rule="evenodd" d="M43.1796 13.5227C41.2888 13.7639 39.4297 14.2206 37.6361 14.8845C37.0749 15.1332 36.4908 15.2753 35.9296 15.5239C34.7842 15.9621 33.7076 16.3528 32.5737 16.8028C32.1958 16.9449 29.4928 17.7738 29.0232 17.8804C26.7325 18.4606 23.2965 19.1474 21.1089 18.1172C20.0667 17.5843 19.9636 19.2421 22.3344 19.8342C23.7209 20.0852 25.1436 20.0205 26.5035 19.6447C27.6488 19.396 29.0232 18.9579 30.1113 18.6145C31.1993 18.2711 32.4821 17.8804 33.6618 17.537C33.9481 17.4304 34.1772 17.3357 34.5094 17.2409L36.2617 16.6962C36.5939 16.6015 36.8344 16.4594 37.1207 16.3528L38.9304 15.9147C39.2625 15.82 39.503 15.7252 39.7894 15.6187C42.1874 15.0898 44.6332 14.8278 47.0852 14.8371C47.6922 14.8371 48.597 14.9911 49.2155 15.0858C50.3608 15.2279 50.1088 14.6003 49.3529 14.1977C47.3875 13.4191 45.259 13.1864 43.1796 13.5227Z" fill="#F9CC46"/>
</g>
<defs>
<clipPath id="clip0_1280_61391">
<rect width="80.9524" height="20" fill="white"/>
</clipPath>
</defs>
</svg>
