<svg width="56" height="56" viewBox="0 0 56 56" fill="none" xmlns="http://www.w3.org/2000/svg">
<path d="M55.1793 35.5475H47.505H45.5477C44.1475 33.3363 42.197 32.1052 39.7437 31.8858C37.7169 31.7045 35.7896 32.2683 34.4359 32.8306C31.7231 28.9314 27.2691 25.9721 22.5818 25.7425C22.7019 23.4715 23.3692 20.2955 26.0685 19.5107C26.4569 20.5247 27.3987 22.2326 29.5771 23.4726C31.58 24.613 33.2145 24.509 35.2773 24.3786C36.2744 24.3156 37.4045 24.2445 38.7987 24.2882C39.3967 24.3073 39.9382 24.021 40.2614 23.5235C40.5856 23.0243 40.6245 22.4064 40.3655 21.8704C39.0946 19.2405 37.8672 17.3637 35.6781 16.1354C31.6374 13.8684 27.0366 17.1668 26.2252 17.7922C24.6907 18.0665 23.4521 18.8807 22.5594 20.1616V16.6695C24.7671 15.7718 26.1077 14.4388 26.5443 12.6998C27.4263 9.18403 24.2205 5.19129 22.8013 3.63784C22.2603 3.0191 21.2174 3.01921 20.6763 3.63784C17.524 6.93123 13.7252 13.8312 20.9189 16.6698V20.1701C20.0247 18.8839 18.7861 18.0648 17.2507 17.7902C16.4323 17.1601 11.8365 13.8704 7.80022 16.1352C5.61108 17.3635 4.38357 19.2403 3.11263 21.8702C2.85363 22.4061 2.89257 23.0241 3.21675 23.5233C3.54007 24.021 4.08869 24.3081 4.67943 24.2881C6.07385 24.2441 7.2038 24.3155 8.20097 24.3785C8.83316 24.4185 9.42444 24.4559 9.99844 24.4559C13.3883 24.63 16.5615 21.9872 17.4095 19.5112C20.1051 20.3004 20.7688 23.4887 20.8937 25.7082C18.7059 25.7657 16.734 26.1814 15.026 26.9477C14.6126 27.1331 14.4278 27.6185 14.6133 28.032C14.7986 28.4454 15.2845 28.6301 15.6974 28.4446C24.9381 24.7113 32.2211 30.7007 35.144 37.2059C30.7028 38.4277 25.868 41.4071 24.3125 42.4123L11.9059 32.7088C11.7013 32.5488 11.4857 32.4123 11.2627 32.297C11.7142 31.5853 12.2366 30.94 12.8232 30.3754C13.1496 30.0613 13.1596 29.542 12.8455 29.2156C12.5312 28.8892 12.012 28.8792 11.6857 29.1934C10.8879 29.9612 10.1939 30.8541 9.61716 31.8475C8.97589 31.8109 8.33091 31.9233 7.73865 32.1795L5.99389 31.272C3.99343 30.2317 1.51543 31.0084 0.468926 33.0029C-0.0383557 33.9698 -0.137778 35.0755 0.188816 36.1162C0.515738 37.1581 1.23028 38.0098 2.20088 38.5146L13.3351 44.305C13.4078 44.3427 13.4835 44.3672 13.56 44.3818L23.2422 51.9546C24.1162 52.6409 25.2688 52.9473 26.3691 52.782L44.8908 50.0611H47.8027C48.8889 50.0234 48.888 48.4577 47.8027 48.4204H44.8309C44.791 48.4204 44.7511 48.4234 44.7117 48.4292L26.1308 51.1589C25.4693 51.256 24.7781 51.073 24.2528 50.6623L7.85721 37.8391C7.34161 37.4358 7.01491 36.8571 6.93704 36.2095C6.66436 34.0668 9.20854 32.6625 10.8949 34.0011L23.7655 44.0676C24.0459 44.2871 24.4359 44.3006 24.7308 44.1007C24.8098 44.0472 32.6899 38.7464 37.9866 38.3385C42.656 37.9781 46.0654 40.286 46.6744 44.2159C46.7436 44.6634 47.1609 44.9699 47.6105 44.9009C48.0582 44.8315 48.3649 44.4124 48.2955 43.9646C47.9266 41.5831 46.7186 39.6344 44.802 38.3292C42.7289 36.8762 39.6376 36.3439 36.7854 36.8373C36.417 36.0532 35.9483 35.1579 35.3683 34.2228C37.9146 33.2331 41.9625 32.5649 44.3725 36.7752C44.5186 37.0305 44.7902 37.188 45.0844 37.188H47.505H54.359V48.4203H51.706C50.6198 48.458 50.6206 50.0237 51.706 50.061H55.1793C55.6323 50.061 55.9996 49.6937 55.9996 49.2407V36.3678C55.9996 35.9147 55.6324 35.5475 55.1793 35.5475ZM34.8751 17.5663C36.6976 18.5889 37.7267 20.1806 38.8883 22.5843C38.8929 22.5937 38.8997 22.6079 38.8856 22.6298C38.873 22.6492 38.8609 22.6485 38.8507 22.6484C37.3786 22.6017 36.2074 22.6759 35.1739 22.7413C33.1727 22.8678 31.9651 22.9441 30.3888 22.0467C28.815 21.1507 28.0605 19.9777 27.7121 19.203C28.9672 18.9468 32.1596 18.5747 34.8197 20.6204C35.1759 20.895 35.6924 20.8313 35.97 20.4701C36.2461 20.111 36.1789 19.596 35.8198 19.3198C34.0363 17.9482 32.088 17.4725 30.4489 17.3746C31.8231 16.9188 33.4312 16.7561 34.8751 17.5663ZM13.0892 22.0467C11.5126 22.9441 10.3046 22.8676 8.304 22.7413C7.27096 22.6704 5.85346 22.6025 4.62725 22.6484C4.61588 22.6487 4.60483 22.6491 4.59225 22.6297C4.57803 22.6078 4.58493 22.5936 4.58952 22.5842C6.32464 18.7374 8.97743 15.9287 13.0154 17.3752C11.3792 17.475 9.4368 17.952 7.65825 19.3197C7.29918 19.5959 7.23191 20.1109 7.50808 20.47C7.78579 20.8312 8.30215 20.8948 8.65838 20.6203C11.3023 18.5869 14.5041 18.9521 15.7647 19.205C15.4152 19.9813 14.6609 21.1521 13.0892 22.0467ZM18.5244 12.3006C17.8496 9.61103 20.6383 6.14482 21.7385 4.90932C22.8387 6.14471 25.6275 9.61103 24.9526 12.3006C24.6896 13.3494 23.8847 14.2106 22.5592 14.8716V8.65378C22.5216 7.56757 20.9558 7.56845 20.9186 8.65378V14.8719C19.5926 14.2108 18.7876 13.3495 18.5244 12.3006ZM1.75364 35.625C1.55874 35.0034 1.61824 34.3429 1.92132 33.7652C2.54902 32.5687 4.03608 32.1033 5.23658 32.7275L6.26668 33.2633C6.22905 33.307 6.19164 33.3512 6.15555 33.3969C5.47918 34.2541 5.17828 35.3225 5.30822 36.4053C5.42996 37.4192 5.91591 38.3316 6.68339 38.9969L2.95732 37.0591C2.37653 36.757 1.9491 36.2477 1.75364 35.625Z" fill="#2966FF"/>
</svg>
