<svg width="56" height="50" viewBox="0 0 56 50" fill="none" xmlns="http://www.w3.org/2000/svg">
<path d="M40.7706 50H15.2294C14.3534 50 13.5372 49.5206 13.0992 48.7491L0.328539 26.2509C-0.109513 25.4794 -0.109513 24.5206 0.328539 23.7491L13.0992 1.25093C13.5372 0.479356 14.3535 0 15.2294 0H40.7706C41.6466 0 42.4628 0.479356 42.9009 1.25093L48.3465 10.8447C48.5729 11.2436 48.4386 11.7536 48.0464 11.9839C47.6546 12.2143 47.1529 12.0776 46.9264 11.6787L41.4808 2.08488C41.3347 1.82769 41.0626 1.6679 40.7706 1.6679H15.2294C14.9374 1.6679 14.6653 1.82769 14.5193 2.08488L1.74863 24.583C1.60258 24.8402 1.60258 25.1598 1.74863 25.417L14.5192 47.9151C14.6652 48.1723 14.9373 48.3321 15.2293 48.3321H40.7705C41.0625 48.3321 41.3346 48.1723 41.4807 47.9151L54.2512 25.417C54.3973 25.1598 54.3973 24.8402 54.2512 24.583L48.6147 14.6532C48.3883 14.2544 48.5226 13.7443 48.9148 13.514C49.3067 13.2836 49.8084 13.4203 50.0348 13.8193L55.6713 23.7491C56.1093 24.5206 56.1093 25.4794 55.6713 26.2509L42.9009 48.7491C42.4628 49.5208 41.6465 50 40.7706 50ZM37.7456 43.0675H30.5299C28.6548 43.0675 26.9075 42.0414 25.97 40.3898L25.4963 39.5552C25.2699 39.1564 25.4042 38.6463 25.7964 38.4161C26.1884 38.1858 26.6901 38.3224 26.9164 38.7213L27.3901 39.5558C28.0356 40.6931 29.2387 41.3996 30.5299 41.3996H36.2877L33.4248 36.2897C32.7786 35.1552 31.5772 34.4507 30.2879 34.4507H25.6388C25.2195 34.4507 24.8065 34.3994 24.4075 34.3012L25.3049 35.8821C25.5313 36.2809 25.3969 36.791 25.0048 37.0213C24.6129 37.2515 24.1111 37.1149 23.8848 36.716L12.5799 16.8002C12.4334 16.5423 12.4334 16.2243 12.5799 15.9663C12.7264 15.7083 12.997 15.5493 13.29 15.5493H17.3612V7.76654C17.3612 7.46854 17.5175 7.19334 17.7712 7.04434C18.0248 6.89534 18.3375 6.89534 18.5911 7.04434L25.2176 10.9358L27.2532 7.34968C27.3997 7.09171 27.6703 6.9327 27.9632 6.9327C28.2562 6.9327 28.5268 7.0916 28.6733 7.34968L32.2812 13.7056C33.2188 15.3573 33.2188 17.4095 32.2812 19.0611L29.9566 23.1564C29.3115 24.293 29.3111 25.705 29.9555 26.842L29.9566 26.844C29.9569 26.8446 29.9574 26.8453 29.9577 26.8459L32.9391 32.0986C33.0551 31.6982 33.2179 31.3087 33.4276 30.9393L35.7522 26.844C36.3973 25.7073 36.3977 24.2953 35.7533 23.1583L35.7522 23.1564C35.7521 23.1562 35.752 23.156 35.7518 23.1557L33.8067 19.729C33.5803 19.3301 33.7147 18.8201 34.1068 18.5898C34.4988 18.3594 35.0005 18.4961 35.2268 18.895L42.0635 30.9393C43.001 32.591 43.001 34.643 42.0635 36.2948L38.4555 42.6508C38.3091 42.9085 38.0384 43.0675 37.7456 43.0675ZM34.8524 35.4688L37.7266 40.5991L40.6435 35.4607C41.289 34.3234 41.289 32.9103 40.6435 31.773L37.6608 26.5185C37.5449 26.919 37.3821 27.3085 37.1724 27.6779L34.8478 31.7731C34.2022 32.9104 34.2022 34.3235 34.8478 35.4608C34.8494 35.4633 34.8508 35.4661 34.8524 35.4688ZM19.5164 25.6845L22.499 30.939C23.1446 32.0763 24.3476 32.7828 25.6388 32.7828H30.2879C30.7072 32.7828 31.1202 32.8341 31.5191 32.9322L28.5366 27.6778C28.5363 27.6772 28.5359 27.6765 28.5355 27.6759L28.5353 27.6755C27.8896 26.5395 26.6872 25.8338 25.3968 25.8338H20.7477C20.3282 25.8339 19.9153 25.7827 19.5164 25.6845ZM17.6106 22.327C18.2568 23.4615 19.4582 24.166 20.7476 24.166H25.3967C25.816 24.166 26.229 24.2173 26.628 24.3155L23.6454 19.061C22.9998 17.9237 21.7967 17.2172 20.5055 17.2172H14.7099L17.6064 22.3199C17.6069 22.3207 17.6073 22.3215 17.6077 22.3222L17.6106 22.327ZM25.0654 18.2271L28.0481 23.4816C28.1641 23.0812 28.3268 22.6917 28.5365 22.3223L30.8611 18.2271C31.5067 17.0898 31.5067 15.6767 30.8611 14.5395L27.9632 9.43445L26.2298 12.4883C26.2292 12.4895 26.2284 12.4907 26.2278 12.4919C26.227 12.4932 26.2263 12.4944 26.2256 12.4957L25.0654 14.5396C24.4199 15.6767 24.4199 17.0898 25.0654 18.2271ZM31.5712 18.6441H31.5723H31.5712ZM19.001 15.5493H20.5056C21.3686 15.5493 22.2044 15.7666 22.9467 16.1622C22.981 15.3106 23.214 14.4656 23.6455 13.7055L24.3978 12.3802L19.0011 9.21106V15.5493H19.001Z" fill="#2966FF"/>
</svg>
