<svg width="56" height="56" viewBox="0 0 56 56" fill="none" xmlns="http://www.w3.org/2000/svg">
<path d="M31.1187 15.1829C31.2113 13.1673 30.4969 11.2558 29.1071 9.80071C27.7561 8.38617 25.9486 7.58915 24.001 7.54507C24.9921 7.02062 26.084 6.71306 27.2304 6.64153C27.6266 6.61692 27.9824 6.39685 28.1822 6.05298C28.3825 5.70779 28.3972 5.28779 28.2213 4.9297L27.153 2.75434C26.8682 2.17443 26.274 1.82378 25.6333 1.85998C20.5306 2.15278 16.5334 6.38953 16.5334 11.5054V14.8396C16.5334 16.8522 17.3352 18.7265 18.7912 20.117C23.2927 24.4158 30.8315 21.4216 31.1187 15.1829ZM18.1742 11.5054C18.1742 7.27021 21.4731 3.76081 25.6916 3.50017L26.4622 5.06937C24.565 5.3229 22.7613 6.14529 21.3239 7.42279C20.9291 7.77367 20.8282 8.34406 21.0787 8.8101C21.3304 9.27801 21.8638 9.50967 22.3767 9.37306C22.8485 9.24749 23.3375 9.18373 23.83 9.18373C25.3901 9.18373 26.8429 9.80531 27.9207 10.9338C28.998 12.0617 29.5515 13.544 29.4797 15.1076C29.347 17.9925 26.9832 20.3564 24.0984 20.4892C22.5363 20.5614 21.0524 20.0076 19.9244 18.9304C18.7958 17.8525 18.1742 16.3996 18.1742 14.8396V11.5054Z" fill="#2966FF"/>
<path d="M14.585 15.1829C14.6139 14.554 14.5631 13.9268 14.434 13.3185C14.3398 12.8752 13.9033 12.5922 13.4612 12.6864C13.018 12.7804 12.735 13.2159 12.829 13.6591C12.9292 14.131 12.9685 14.6185 12.9461 15.1078C12.8134 17.9927 10.4496 20.3566 7.56481 20.4894C6.0025 20.5616 4.51883 20.0078 3.39084 18.9306C2.2622 17.8525 1.64062 16.3997 1.64062 14.8396V11.5054C1.64062 7.27021 4.93948 3.76081 9.15797 3.50017L9.92862 5.06937C8.03141 5.3229 6.22759 6.14529 4.79019 7.42301C4.39545 7.77389 4.29472 8.34439 4.5453 8.81032C4.79686 9.27823 5.33039 9.50967 5.84314 9.37317C6.31487 9.2476 6.80389 9.18384 7.29641 9.18384C8.77362 9.18384 10.1711 9.74974 11.2316 10.7772C11.5569 11.0925 12.0762 11.0843 12.3915 10.7589C12.7067 10.4336 12.6985 9.91424 12.3732 9.59903C11.046 8.3131 9.30967 7.58751 7.46736 7.54529C8.45841 7.02084 9.55041 6.71328 10.6968 6.64175C11.093 6.61714 11.4488 6.39707 11.6485 6.0532C11.8489 5.70801 11.8637 5.28801 11.6877 4.92992L10.6197 2.75434C10.3348 2.17443 9.74137 1.82378 9.09989 1.85998C3.99722 2.15289 0 6.38964 0 11.5054V14.8396C0 16.8522 0.801828 18.7265 2.25783 20.117C6.78869 24.4442 14.3007 21.3626 14.585 15.1829Z" fill="#2966FF"/>
<path d="M31.8258 33.8731C28.1028 34.0445 25.0523 37.0952 24.881 40.8183C24.7884 42.834 25.5028 44.7455 26.8926 46.2006C28.2436 47.6151 30.0511 48.4121 31.9987 48.4562C31.0076 48.9807 29.9157 49.2882 28.7693 49.3598C28.3731 49.3844 28.0173 49.6044 27.8175 49.9483C27.6172 50.2935 27.6025 50.7135 27.7784 51.0716L28.8467 53.247C29.1178 53.7992 29.6717 54.1439 30.2752 54.1439C30.3054 54.1439 30.3359 54.1431 30.3664 54.1413C35.4691 53.8485 39.4663 49.6118 39.4663 44.496V41.1618C39.4663 39.1492 38.6645 37.2749 37.2085 35.8844C35.7531 34.4945 33.8395 33.7812 31.8258 33.8731ZM37.8255 44.4959C37.8255 48.7311 34.5266 52.2405 30.3081 52.5011L29.5375 50.9319C31.4347 50.6784 33.2384 49.856 34.6758 48.5785C35.0706 48.2276 35.1715 47.6572 34.921 47.1912C34.6693 46.7232 34.1358 46.4916 33.623 46.6282C33.1512 46.7538 32.6622 46.8176 32.1697 46.8176C30.6096 46.8176 29.1568 46.196 28.079 45.0675C27.0017 43.9396 26.4482 42.4573 26.52 40.8937C26.6527 38.0088 29.0165 35.6449 31.9013 35.5121C33.4641 35.4399 34.9474 35.9937 36.0752 37.0709C37.2039 38.1488 37.8255 39.6017 37.8255 41.1617V44.4959Z" fill="#2966FF"/>
<path d="M53.7414 35.8843C52.2861 34.4945 50.3744 33.7812 48.3589 33.8731C47.5244 33.9115 46.7098 34.0924 45.9377 34.4109C45.5189 34.5838 45.3194 35.0633 45.4921 35.482C45.6648 35.9008 46.1443 36.1006 46.5632 35.9276C47.1598 35.6815 47.7894 35.5418 48.4343 35.512C49.9975 35.4398 51.4804 35.9936 52.6082 37.0708C53.737 38.1487 54.3586 39.6015 54.3586 41.1616V44.4957C54.3586 48.731 51.0597 52.2404 46.8412 52.501L46.0706 50.9318C47.9678 50.6783 49.7716 49.8559 51.209 48.5782C51.6037 48.2273 51.7045 47.6568 51.454 47.1909C51.2022 46.723 50.6686 46.4913 50.156 46.628C49.6843 46.7536 49.1953 46.8173 48.7028 46.8173C47.1427 46.8173 45.6899 46.1958 44.612 45.0672C43.5348 43.9394 42.9813 42.4571 43.0531 40.8935C43.1003 39.8681 43.4307 38.873 44.0086 38.016C44.2618 37.6403 44.1627 37.1305 43.7871 36.8772C43.4114 36.624 42.9018 36.7232 42.6483 37.0987C41.9021 38.2056 41.4752 39.4917 41.4143 40.8181C41.3216 42.8338 42.0359 44.7452 43.4258 46.2004C44.7768 47.6149 46.5843 48.4119 48.5319 48.456C47.5408 48.9805 46.4489 49.288 45.3025 49.3595C44.9063 49.3842 44.5505 49.6042 44.3508 49.9481C44.1504 50.2933 44.1356 50.7133 44.3116 51.0714L45.3799 53.2467C45.651 53.799 46.2049 54.1437 46.8084 54.1437C46.8386 54.1437 46.8691 54.1428 46.8996 54.1411C52.002 53.8484 55.9992 49.6117 55.9992 44.4959V41.1617C55.9992 39.149 55.1974 37.2748 53.7414 35.8843Z" fill="#2966FF"/>
<path d="M34.2012 15.123H52.6313C53.0844 15.123 53.4516 14.7558 53.4516 14.3027C53.4516 13.8497 53.0844 13.4824 52.6313 13.4824H34.2012C33.748 13.4824 33.3809 13.8497 33.3809 14.3027C33.3809 14.7558 33.7481 15.123 34.2012 15.123Z" fill="#2966FF"/>
<path d="M52.6314 27.1797H3.36719C2.91405 27.1797 2.54688 27.547 2.54688 28C2.54688 28.453 2.91405 28.8203 3.36719 28.8203H52.6314C53.0846 28.8203 53.4518 28.453 53.4518 28C53.4518 27.547 53.0846 27.1797 52.6314 27.1797Z" fill="#2966FF"/>
<path d="M21.7975 40.877H3.36737C2.91423 40.877 2.54706 41.2442 2.54706 41.6973C2.54706 42.1503 2.91423 42.5176 3.36737 42.5176H21.7975C22.2506 42.5176 22.6178 42.1503 22.6178 41.6973C22.6178 41.2442 22.2505 40.877 21.7975 40.877Z" fill="#2966FF"/>
</svg>
