<svg width="56" height="56" viewBox="0 0 56 56" fill="none" xmlns="http://www.w3.org/2000/svg">
<path d="M40.9742 20.2409C40.7256 19.8309 40.3737 19.4961 39.9577 19.2734L29.228 13.5092C28.4654 13.0988 27.5534 13.0958 26.7878 13.5008C26.7827 13.5034 26.7774 13.5062 26.7723 13.509L16.043 19.273C15.2673 19.6794 14.6377 20.6096 14.627 21.6708V34.6252C14.627 35.6595 15.1884 36.5881 16.0919 37.0484L26.8223 42.5187C27.4425 42.8232 28.3451 42.9412 29.1777 42.519L33.6884 40.2192C34.092 40.0135 34.2523 39.5195 34.0466 39.1159C33.8408 38.7122 33.3468 38.5518 32.9432 38.7577L28.8207 40.8595V27.4257L39.7323 21.8626V34.625C39.7323 35.0331 39.509 35.4105 39.1628 35.5867L36.446 36.9718C36.0424 37.1775 35.882 37.6716 36.0878 38.0752C36.2936 38.4788 36.7876 38.6392 37.1911 38.4334L39.9075 37.0485C40.8114 36.5884 41.3729 35.6598 41.3729 34.625V21.6707C41.3716 21.3135 41.2648 20.7393 40.9742 20.2409ZM27.5427 14.9573C27.5463 14.9555 27.5499 14.9536 27.5535 14.9517C27.835 14.8021 28.1702 14.803 28.4511 14.9541L38.7833 20.5047L28.0002 26.0022L17.2165 20.5047L27.5427 14.9573ZM16.8368 35.5865C16.4909 35.4102 16.2675 35.0328 16.2675 34.6249V21.8626L27.1798 27.4257V40.8593L16.8368 35.5865Z" fill="#2966FF"/>
<path d="M53.3902 25.3902H52.5992C52.0085 19.7794 49.503 14.5196 45.4913 10.5081C41.4797 6.49677 36.2203 3.99153 30.6098 3.40091V2.60991C30.6098 1.17075 29.439 0 28 0C26.561 0 25.3902 1.17075 25.3902 2.6098V3.4008C19.7805 3.99131 14.5214 6.49611 10.5101 10.5067C6.49764 14.5183 3.99153 19.7788 3.4008 25.3902H2.60991C1.17075 25.3902 0 26.561 0 28C0 29.439 1.17075 30.6098 2.6098 30.6098H3.4008C3.99131 36.2195 6.49611 41.4786 10.5067 45.4899C14.5183 49.5024 19.7787 52.0085 25.3902 52.5992V53.3901C25.3902 54.8293 26.561 56 28 56C29.439 56 30.6098 54.8293 30.6098 53.3902V52.5997C33.7027 52.2764 36.6653 51.3858 39.4263 49.9454C39.8279 49.7359 39.9837 49.2404 39.7741 48.8387C39.5644 48.4369 39.069 48.2812 38.6673 48.4909C36.1418 49.8085 33.4348 50.6325 30.6097 50.949V49.2012C35.318 48.6251 39.7305 46.478 43.1044 43.1039C46.4781 39.73 48.6248 35.3178 49.2011 30.6098H50.9482C50.2452 36.8342 47.019 42.5398 42.0007 46.3705C41.6406 46.6454 41.5715 47.1602 41.8463 47.5203C42.0078 47.7318 42.2519 47.8429 42.499 47.8429C42.6725 47.8429 42.8475 47.788 42.9961 47.6746C48.4197 43.5346 51.8898 37.3489 52.5993 30.6098H53.39C54.8293 30.6098 56 29.439 56 28C56 26.561 54.8293 25.3902 53.3902 25.3902ZM44.3312 11.6681C48.0361 15.3728 50.3651 20.217 50.9492 25.3902H49.2012C48.6251 20.682 46.4781 16.2696 43.1043 12.8958C39.7304 9.52186 35.3181 7.37494 30.6098 6.79875V5.05083C35.7827 5.63478 40.6266 7.9637 44.3312 11.6681ZM27.0308 2.6098C27.0308 2.07539 27.4656 1.64062 28 1.64062C28.5344 1.64062 28.9692 2.07539 28.9692 2.6098V8.80184C28.9692 9.33625 28.5344 9.77102 28 9.77102C27.4656 9.77102 27.0308 9.33625 27.0308 8.80184V2.6098ZM1.64062 28C1.64062 27.4656 2.07539 27.0308 2.6098 27.0308H8.80184C9.33625 27.0308 9.77102 27.4656 9.77102 28C9.77102 28.5344 9.33625 28.9692 8.80184 28.9692H2.6098C2.07539 28.9692 1.64062 28.5344 1.64062 28ZM11.6668 44.33C7.96316 40.6256 5.63467 35.7821 5.05083 30.6098H6.79875C7.37483 35.3171 9.5212 39.7289 12.8941 43.1025C16.2681 46.4773 20.6812 48.6248 25.3902 49.2012V50.9491C20.2164 50.3651 15.3717 48.0355 11.6668 44.33ZM28.9692 53.3902C28.9692 53.9246 28.5344 54.3594 28 54.3594C27.4656 54.3594 27.0308 53.9246 27.0308 53.3902V47.1982C27.0308 46.6637 27.4656 46.229 28 46.229C28.5344 46.229 28.9692 46.6637 28.9692 47.1982V53.3902ZM41.9444 41.9439C38.8771 45.0113 34.8808 46.9809 30.6098 47.5483C30.7739 46.0638 29.5819 44.5786 28 44.5882C26.4692 44.5758 25.2408 45.9828 25.3902 47.5483C21.1187 46.9808 17.1218 45.0107 14.0543 41.9425C10.9879 38.8754 9.01895 34.8797 8.45173 30.6097C9.93617 30.7737 11.4214 29.5818 11.4117 27.9999C11.4242 26.4691 10.0173 25.2408 8.45184 25.3901C8.93113 21.7584 10.4044 18.3568 12.7434 15.5045C15.2401 12.4599 18.5403 10.252 22.2872 9.1198C22.7209 8.98877 22.9662 8.53103 22.8352 8.09725C22.7042 7.66369 22.2464 7.41803 21.8127 7.54928C17.7532 8.77581 14.1784 11.167 11.4746 14.4641C8.89448 17.6105 7.28623 21.3742 6.79766 25.3901H5.05083C5.63489 20.2163 7.96447 15.3716 11.67 11.6668C15.3744 7.96316 20.2179 5.63467 25.3901 5.05083V8.80184C25.3901 10.2409 26.5608 11.4116 27.9999 11.4116C29.5307 11.4241 30.7591 10.0171 30.6097 8.45163C34.8806 9.01895 38.8767 10.9885 41.944 14.0558C45.0113 17.1231 46.9808 21.1192 47.5482 25.3901C46.0637 25.226 44.5785 26.418 44.5881 27.9999C44.5757 29.5307 45.9827 30.7591 47.5482 30.6097C46.9809 34.8806 45.0115 38.8766 41.9444 41.9439ZM53.3902 28.9692H47.1982C46.6637 28.9692 46.229 28.5344 46.229 28C46.229 27.4656 46.6637 27.0308 47.1982 27.0308H53.3902C53.9246 27.0308 54.3594 27.4656 54.3594 28C54.3594 28.5344 53.9246 28.9692 53.3902 28.9692Z" fill="#2966FF"/>
</svg>
