<svg width="56" height="56" viewBox="0 0 56 56" fill="none" xmlns="http://www.w3.org/2000/svg">
<path d="M46.2921 17.049C46.2921 16.2832 46.2408 15.5125 46.1394 14.7586C46.0791 14.3098 45.6676 13.9951 45.2172 14.0547C44.7682 14.1151 44.4531 14.5278 44.5133 14.9769C44.6049 15.6589 44.6514 16.356 44.6514 17.049C44.6514 25.5453 37.7392 32.4574 29.243 32.4574C23.526 32.4574 18.5265 29.3276 15.8672 24.6915L16.6997 23.8591C19.1218 28.3024 23.8361 31.3241 29.243 31.3241C37.1143 31.3241 43.5181 24.9203 43.5181 17.049C43.5181 15.7312 43.3378 14.4549 43.002 13.2425L48.9765 7.26797V9.25684C48.9765 9.70999 49.3438 10.0772 49.7968 10.0772C50.2498 10.0772 50.6171 9.70999 50.6171 9.25684V5.28773C50.6233 4.87408 50.2573 4.45331 49.7968 4.46709H45.8274C45.3743 4.46709 45.007 4.83427 45.007 5.28741C45.007 5.74055 45.3743 6.10772 45.8274 6.10772H47.8163L44.497 9.42703C41.6216 3.66264 35.7597 0 29.2432 0C19.8423 0 12.1942 7.64816 12.1942 17.049C12.1942 19.6735 12.7907 22.161 13.8546 24.384L10.4867 27.7518C9.57228 27.3167 8.44386 27.4745 7.68797 28.2303C6.72864 29.1898 6.72864 30.7511 7.68797 31.7107C8.16769 32.1904 8.7979 32.4302 9.42812 32.4302C10.0583 32.4302 10.6885 32.1904 11.1683 31.7107C11.1683 31.7107 11.1683 31.7107 11.1683 31.7105C11.9241 30.9547 12.0818 29.8262 11.6468 28.9119L14.6698 25.8888C16.5658 29.003 19.4321 31.4637 22.8449 32.8507V34.0645C22.8449 35.3068 23.6668 36.3606 24.7952 36.7111V44.9762C24.7952 45.4293 25.1625 45.7965 25.6155 45.7965C26.0685 45.7965 26.4358 45.4293 26.4358 44.9762V41.208H32.0505V51.5517C32.0505 53.0996 30.7911 54.3591 29.2432 54.3591C27.6952 54.3591 26.4358 53.0996 26.4358 51.5517V49.072C26.4358 48.6188 26.0685 48.2517 25.6155 48.2517C25.1625 48.2517 24.7952 48.6188 24.7952 49.072V51.5517C24.7952 54.0043 26.7905 55.9997 29.2432 55.9997C31.6958 55.9997 33.6911 54.0043 33.6911 51.5517V36.7113C34.8196 36.3607 35.6414 35.3069 35.6414 34.0647V32.8509C41.8809 30.3153 46.2921 24.1881 46.2921 17.049ZM10.0081 30.5506C9.68833 30.8707 9.16792 30.8707 8.84811 30.5507C8.5283 30.2308 8.5283 29.7103 8.84811 29.3906C9.00801 29.2306 9.21812 29.1507 9.42823 29.1507C9.63812 29.1507 9.84812 29.2307 10.008 29.3903C10.0081 29.3904 10.0082 29.3905 10.0084 29.3906L10.0086 29.3908C10.328 29.7107 10.3278 30.2309 10.0081 30.5506ZM41.8776 17.049C41.8776 24.0157 36.2098 29.6835 29.2432 29.6835C24.2838 29.6835 19.9834 26.8108 17.9165 22.6425L24.4884 16.0706C25.0572 16.3298 25.8464 16.4294 26.6055 16.0706L31.1703 20.6353C31.014 20.9623 30.9288 21.3216 30.9288 21.6946C30.9082 22.9051 31.9881 24.1733 33.3898 24.1556C34.0471 24.1556 34.6651 23.8995 35.1299 23.4348C35.5027 23.0744 35.8518 22.3637 35.8507 21.6946C35.8507 21.3216 35.7655 20.9623 35.6092 20.6353L41.6395 14.6051C41.7951 15.3961 41.8776 16.2131 41.8776 17.049ZM16.6087 17.049C16.6087 10.0824 22.2765 4.41448 29.2432 4.41448C34.7149 4.41448 39.3846 7.9112 41.1371 12.787L34.4483 19.4759C33.7802 19.158 32.9993 19.158 32.3312 19.4759L27.7656 14.9102C28.2007 13.9958 28.043 12.8674 27.2871 12.1114C26.3275 11.1521 24.7663 11.152 23.8068 12.1115C23.051 12.8674 22.8933 13.9957 23.3283 14.9102L17.2412 20.9973C16.8313 19.7545 16.6087 18.4274 16.6087 17.049ZM34.2101 21.6946C34.2101 21.9138 34.1248 22.1198 33.9698 22.2747V22.2748C33.8148 22.4296 33.6089 22.515 33.3898 22.515C33.1707 22.515 32.9648 22.4296 32.8098 22.2747C32.6548 22.1198 32.5695 21.9138 32.5695 21.6946C32.5695 21.4756 32.6548 21.2695 32.8098 21.1146C32.9697 20.9547 33.1798 20.8748 33.3898 20.8748C33.5997 20.8748 33.8097 20.9547 33.9696 21.1143C33.9697 21.1144 33.9698 21.1145 33.9699 21.1146C33.97 21.1147 33.97 21.1147 33.9701 21.1148C34.1248 21.2698 34.2101 21.4757 34.2101 21.6946ZM24.9671 14.4321C24.967 14.432 24.9669 14.4319 24.9668 14.4318C24.9667 14.4317 24.9667 14.4317 24.9666 14.4316C24.647 14.1117 24.6471 13.5914 24.9668 13.2718C25.1267 13.1118 25.3368 13.0319 25.5469 13.0319C25.7569 13.0319 25.967 13.1119 26.127 13.2717C26.4468 13.5916 26.4468 14.1121 26.127 14.4318C25.8072 14.7517 25.2871 14.7517 24.9671 14.4321ZM13.8347 17.049C13.8347 8.5528 20.7469 1.64063 29.2432 1.64063C35.318 1.64063 40.7636 5.16184 43.2671 10.6572L42.4039 11.5204C40.2393 6.38663 35.1553 2.77386 29.2432 2.77386C21.3719 2.77386 14.9681 9.17766 14.9681 17.049C14.9681 18.8941 15.3199 20.6584 15.96 22.2786L15.0933 23.1453C14.2842 21.2746 13.8347 19.2135 13.8347 17.049ZM26.4358 39.5677V36.8353H32.0505V39.5676H26.4358V39.5677ZM34.0008 34.0647C34.0008 34.6877 33.4939 35.1947 32.8708 35.1947H25.6155C24.9924 35.1947 24.4856 34.6877 24.4856 34.0647V33.4216C25.9962 33.8613 27.5925 34.098 29.2432 34.098C30.8938 34.098 32.4901 33.8613 34.0008 33.4216V34.0647Z" fill="#2966FF"/>
<path d="M53.5115 40.374C53.3931 40.1813 53.1537 39.9025 52.797 39.6931L46.693 36.4141C46.1556 36.1248 45.5134 36.1224 44.9738 36.4071C44.9694 36.4094 44.9652 36.4116 44.961 36.4139L38.8576 39.6928C38.3395 39.9711 37.8804 40.5884 37.8651 41.3688V48.7387C37.8651 49.4609 38.2585 50.1098 38.8916 50.4322L44.996 53.5443C45.4069 53.7401 46 53.8539 46.6574 53.5445L52.7614 50.4325C53.3949 50.1101 53.7883 49.4611 53.7883 48.7387V41.3688C53.7883 41.0171 53.6925 40.6734 53.5115 40.374ZM45.7317 37.8621C45.734 37.8608 45.7364 37.8597 45.7387 37.8584C45.795 37.8286 45.8594 37.8286 45.916 37.8591L51.199 40.6972L45.8268 43.4361L40.4544 40.6971L45.7317 37.8621ZM39.6364 48.9703C39.5569 48.9299 39.5056 48.8389 39.5056 48.7385V42.055L45.0065 44.8594V51.7081L39.6364 48.9703ZM52.1477 48.7385C52.1477 48.8389 52.0965 48.9299 52.0167 48.9704L46.6471 51.708V44.8593L52.1477 42.055V48.7385Z" fill="#2966FF"/>
<path d="M22.1861 52.1027H21.2414V41.3356C21.2414 40.455 20.5249 39.7384 19.6442 39.7384H17.9167C17.036 39.7384 16.3195 40.455 16.3195 41.3356V52.1027H15.0695V47.7825C15.0695 47.3294 14.7022 46.9622 14.2492 46.9622C13.7961 46.9622 13.4288 47.3294 13.4288 47.7825V52.1027H11.7882V39.1309H13.4288V43.8357C13.4288 44.2889 13.7961 44.656 14.2492 44.656C14.7022 44.656 15.0695 44.2889 15.0695 43.8357V39.0874C15.0695 38.2067 14.353 37.4902 13.4723 37.4902H11.7447C10.864 37.4902 10.1475 38.2067 10.1475 39.0874V52.1027H8.89766V45.5604C8.89766 44.6797 8.18114 43.9632 7.30045 43.9632H5.57298C4.6923 43.9632 3.97578 44.6797 3.97578 45.5604V52.1027H3.03111C2.57808 52.1027 2.2108 52.4699 2.2108 52.923C2.2108 53.3762 2.57808 53.7434 3.03111 53.7434H22.186C22.639 53.7434 23.0063 53.3762 23.0063 52.923C23.0063 52.4699 22.6391 52.1027 22.1861 52.1027ZM5.61641 52.1027V45.6038H7.25703V52.1027H5.61641ZM17.9601 52.1027V41.3791H19.6008V52.1027H17.9601Z" fill="#2966FF"/>
</svg>
