<svg width="56" height="56" viewBox="0 0 56 56" fill="none" xmlns="http://www.w3.org/2000/svg">
<g clip-path="url(#clip0_120_1185)">
<path d="M21.0654 19.5923L27.1698 22.7044C27.5807 22.9002 28.1737 23.014 28.8312 22.7046L34.9352 19.5926C35.5687 19.2702 35.9622 18.6212 35.9622 17.8987V10.5288C35.9629 9.95061 35.645 9.22611 34.9709 8.85336L28.8669 5.5743C28.3292 5.28489 27.6863 5.28259 27.1462 5.56795C27.1454 5.56828 27.1446 5.56872 27.1439 5.56916C27.1408 5.57069 27.1379 5.57233 27.1348 5.57397L21.0312 8.85292C20.513 9.13139 20.0542 9.74837 20.0389 10.5289V17.8988C20.0389 18.6209 20.4323 19.2698 21.0654 19.5923ZM21.8102 18.1305C21.7308 18.0901 21.6795 17.9991 21.6795 17.8987V11.2152L27.1803 14.0196V20.8683L21.8102 18.1305ZM34.1905 18.1307L28.8209 20.8682V14.0196L34.3215 11.2152V17.8987C34.3215 17.9992 34.2703 18.0901 34.1905 18.1307ZM27.9071 7.02144C27.9089 7.02045 27.9107 7.01947 27.9126 7.01859C27.9689 6.98873 28.0333 6.98884 28.0899 7.01925L33.3729 9.85731L29.4496 11.8575L28.0006 12.5962L22.6281 9.8572L27.9071 7.02144Z" fill="#2966FF"/>
<path d="M55.1797 49.0034H49.7535V28.0008C49.7535 27.5477 49.3862 27.1805 48.9332 27.1805C48.4801 27.1805 48.1129 27.5477 48.1129 28.0008V49.0033H43.3525V15.3754C43.3525 15.1408 43.5434 14.9499 43.7779 14.9499H47.6875C47.9221 14.9499 48.1129 15.1408 48.1129 15.3754V23.977C48.1129 24.43 48.4801 24.7973 48.9332 24.7973C49.3862 24.7973 49.7535 24.43 49.7535 23.977V15.3754C49.7535 14.2362 48.8266 13.3093 47.6875 13.3093H43.7779C42.6386 13.3093 41.7119 14.2362 41.7119 15.3754V49.0034H37.9317V27.781C37.9317 26.6418 37.0048 25.7151 35.8657 25.7151H31.9561C30.8168 25.7151 29.8901 26.6419 29.8901 27.781V49.0034H26.1099V35.9189C26.1099 34.7796 25.183 33.8529 24.0439 33.8529H20.1343C18.995 33.8529 18.0683 34.7797 18.0683 35.9189V39.313C18.0683 39.766 18.4356 40.1333 18.8886 40.1333C19.3417 40.1333 19.7089 39.766 19.7089 39.313V35.9189C19.7089 35.6843 19.8998 35.4935 20.1343 35.4935H24.0439C24.2785 35.4935 24.4693 35.6844 24.4693 35.9189V49.0033H19.7089V43.3575C19.7089 42.9044 19.3417 42.5372 18.8886 42.5372C18.4356 42.5372 18.0683 42.9044 18.0683 43.3575V49.0033H14.2881V42.2271C14.2881 41.0878 13.3612 40.1611 12.2221 40.1611H8.3125C7.17325 40.1611 6.24652 41.0879 6.24652 42.2271V49.0033H3.34808C2.40658 49.0033 1.64062 48.2373 1.64062 47.2958V7.95518C1.64062 7.50215 1.27334 7.13487 0.820312 7.13487C0.367281 7.13487 0 7.50215 0 7.95518V47.296C0 49.1421 1.50194 50.644 3.34808 50.644H55.1797C55.6327 50.644 56 50.2767 56 49.8237C56 49.3707 55.6327 49.0034 55.1797 49.0034ZM7.88714 49.0034V42.2272C7.88714 41.9926 8.078 41.8018 8.3125 41.8018H12.2221C12.4567 41.8018 12.6475 41.9927 12.6475 42.2272V49.0034H7.88714ZM31.5307 49.0034V27.781C31.5307 27.5464 31.7216 27.3557 31.9561 27.3557H35.8657C36.1003 27.3557 36.2911 27.5465 36.2911 27.781V49.0034H31.5307Z" fill="#2966FF"/>
</g>
<defs>
<clipPath id="clip0_120_1185">
<rect width="56" height="56" fill="white"/>
</clipPath>
</defs>
</svg>
