<svg width="56" height="56" viewBox="0 0 56 56" fill="none" xmlns="http://www.w3.org/2000/svg">
<g clip-path="url(#clip0_120_1143)">
<path d="M52.6337 3.7168H3.36633C1.51014 3.7168 0 5.22694 0 7.08313V38.9611C0 40.8173 1.51014 42.3274 3.36633 42.3274H20.7394V46.4838L16.1008 49.7074C15.5902 50.0623 15.3719 50.6995 15.558 51.2929C15.744 51.8863 16.2867 52.285 16.9086 52.285H39.0915C39.7134 52.285 40.2561 51.8863 40.4422 51.2929C40.6282 50.6995 40.4099 50.0623 39.8993 49.7074L35.2607 46.4838V42.3274H52.6338C54.49 42.3274 56.0001 40.8173 56.0001 38.9611V7.08313C56 5.22694 54.4899 3.7168 52.6337 3.7168ZM3.36633 5.35422H52.6337C53.587 5.35422 54.3626 6.12982 54.3626 7.08313V35.7303H1.63743V7.08313C1.63743 6.12982 2.41302 5.35422 3.36633 5.35422ZM52.6337 40.69H31.5998C31.1477 40.69 30.7811 41.0566 30.7811 41.5087C30.7811 41.9609 31.1477 42.3274 31.5998 42.3274H33.6231V46.9118C33.6231 47.18 33.7545 47.4311 33.9746 47.5841L38.3828 50.6476H17.6173L21.8148 47.7305H30.776C31.2281 47.7305 31.5947 47.3639 31.5947 46.9118C31.5947 46.4596 31.2281 46.0931 30.776 46.0931H22.377V42.3274H28.1108C28.5629 42.3274 28.9295 41.9609 28.9295 41.5087C28.9295 41.0566 28.5629 40.69 28.1108 40.69H3.36633C2.41302 40.69 1.63743 39.9144 1.63743 38.9611V37.3677H54.3626V38.9611C54.3626 39.9144 53.587 40.69 52.6337 40.69Z" fill="#2966FF"/>
<path d="M14.2011 31.9843C19.3048 31.9843 23.457 27.8321 23.457 22.7285C23.457 17.6248 19.3048 13.4727 14.2011 13.4727C12.1676 13.4727 10.2369 14.1207 8.61817 15.3467C8.25772 15.6197 8.18687 16.1333 8.45989 16.4937C8.73279 16.8541 9.2464 16.9251 9.60685 16.652C10.9387 15.6432 12.5274 15.1101 14.2011 15.1101C15.2042 15.1101 16.1617 15.3068 17.0396 15.6607L13.5771 22.1587L7.42077 26.1955C6.88643 25.1547 6.58274 23.9767 6.58274 22.7286C6.58274 21.4383 6.91241 20.1624 7.53594 19.0386C7.75536 18.6432 7.61268 18.1448 7.2173 17.9255C6.82191 17.7062 6.32348 17.8488 6.10417 18.2441C5.34605 19.6104 4.94531 21.161 4.94531 22.7286C4.94531 27.8322 9.09739 31.9843 14.2011 31.9843ZM21.8194 22.7286C21.8194 23.4486 21.7168 24.1449 21.5293 24.8056L15.3517 22.3103L18.4841 16.4318C20.4958 17.8046 21.8194 20.1147 21.8194 22.7286ZM14.2917 23.6482L20.9157 26.3237C19.6294 28.7162 17.1024 30.3469 14.2011 30.3469C11.8348 30.3469 9.71732 29.2624 8.31896 27.5645L14.2917 23.6482Z" fill="#2966FF"/>
<path d="M29.7031 16.1011H49.6498C50.506 16.1011 51.2025 15.4046 51.2025 14.5484V11.8476C51.2025 10.9915 50.506 10.2949 49.6498 10.2949H47.0592C46.607 10.2949 46.2405 10.6615 46.2405 11.1136C46.2405 11.5658 46.607 11.9323 47.0592 11.9323H49.5651V14.4636H29.7879V11.9323H43.5702C44.0223 11.9323 44.3889 11.5658 44.3889 11.1136C44.3889 10.6615 44.0223 10.2949 43.5702 10.2949H29.7031C28.847 10.2949 28.1504 10.9915 28.1504 11.8476V14.5484C28.1505 15.4047 28.8471 16.1011 29.7031 16.1011Z" fill="#2966FF"/>
<path d="M29.7031 24.2222H41.5879C42.444 24.2222 43.1406 23.5257 43.1406 22.6695V19.9687C43.1406 19.1126 42.444 18.416 41.5879 18.416H29.7031C28.847 18.416 28.1504 19.1126 28.1504 19.9687V22.6695C28.1505 23.5257 28.8471 24.2222 29.7031 24.2222ZM29.7879 20.0536H41.5032V22.5848H29.7879V20.0536Z" fill="#2966FF"/>
<path d="M29.7031 32.3433H36.5115C37.3677 32.3433 38.0642 31.6468 38.0642 30.7906V28.0898C38.0642 27.2337 37.3677 26.5371 36.5115 26.5371H29.7031C28.847 26.5371 28.1504 27.2337 28.1504 28.0898V30.7906C28.1505 31.6468 28.8471 32.3433 29.7031 32.3433ZM29.7879 28.1746H36.4268V30.7059H29.7879V28.1746Z" fill="#2966FF"/>
</g>
<defs>
<clipPath id="clip0_120_1143">
<rect width="56" height="56" fill="white"/>
</clipPath>
</defs>
</svg>
