<svg width="56" height="56" viewBox="0 0 56 56" fill="none" xmlns="http://www.w3.org/2000/svg">
<path d="M40.9741 15.1276C40.7255 14.7178 40.3736 14.3831 39.9575 14.1603L35.3902 11.7066C34.9908 11.4921 34.4936 11.6418 34.2792 12.041C34.0649 12.4401 34.2146 12.9375 34.6138 13.1518L38.7833 15.3917L28.8761 20.4427L28.0001 20.8893L17.3988 15.4847L17.2164 15.3917L27.5427 9.84424C27.5463 9.84238 27.5499 9.84052 27.5535 9.83855C27.8351 9.68903 28.1704 9.69002 28.451 9.84096L31.1853 11.3099C31.5846 11.5242 32.0818 11.3745 32.2963 10.9754C32.5106 10.5763 32.3609 10.079 31.9617 9.86458L29.228 8.39589C28.4651 7.98552 27.5533 7.98257 26.7878 8.38747C26.7827 8.3901 26.7774 8.39283 26.7723 8.39567L16.0429 14.1596C15.2672 14.5663 14.6377 15.4962 14.627 16.5575V29.5117C14.627 30.5462 15.1884 31.4747 16.0919 31.9349L26.8224 37.4054C27.443 37.7099 28.3445 37.8278 29.1775 37.4055L39.9072 31.9353C40.8112 31.4752 41.3728 30.5466 41.3728 29.5117V16.5576C41.3714 16.2003 41.265 15.6263 40.9741 15.1276ZM16.8367 30.4733C16.4909 30.2973 16.2675 29.9198 16.2675 29.5119V16.7495L27.1798 22.3125V35.7462L16.8367 30.4733ZM39.732 29.5119C39.732 29.92 39.5087 30.2974 39.1625 30.4736L28.8203 35.7463V22.3125L39.732 16.7495V29.5119Z" fill="#2966FF"/>
<path d="M33.1184 45.583C32.4302 45.583 31.7833 45.851 31.2965 46.3376L30.5755 47.0586V42.801C30.5755 41.3804 29.4198 40.2246 27.9991 40.2246C26.5784 40.2246 25.4227 41.3804 25.4227 42.801V47.0586L24.7017 46.3375C23.6971 45.333 22.0626 45.3331 21.0581 46.3375C20.0536 47.3421 20.0536 48.9766 21.0581 49.9811L26.4242 55.3472C26.845 55.7681 27.4042 55.9998 27.9992 55.9998C28.5942 55.9998 29.1535 55.7681 29.5741 55.3475L30.9845 53.9371C31.3049 53.6167 31.3049 53.0973 30.9845 52.777C30.664 52.4567 30.1447 52.4567 29.8244 52.777L28.414 54.1874C28.3032 54.2981 28.1558 54.3591 27.9992 54.3591C27.8426 54.3591 27.6953 54.2981 27.5845 54.1873L22.2183 48.8212C21.8534 48.4563 21.8535 47.8626 22.2183 47.4977C22.5832 47.1328 23.1769 47.1328 23.5418 47.4977L25.6632 49.6192C25.8978 49.8539 26.2508 49.924 26.5571 49.797C26.8637 49.67 27.0635 49.3709 27.0635 49.0391V42.8013C27.0635 42.2852 27.4833 41.8655 27.9993 41.8655C28.5154 41.8655 28.9351 42.2852 28.9351 42.8013V49.0391C28.9351 49.371 29.135 49.67 29.4415 49.797C29.7481 49.924 30.1009 49.8538 30.3356 49.6192L32.4569 47.4978C32.6337 47.3211 32.8688 47.2237 33.1187 47.2237C33.3687 47.2237 33.6037 47.3211 33.7803 47.4978C33.9571 47.6746 34.0545 47.9096 34.0545 48.1595C34.0545 48.4095 33.9571 48.6445 33.7803 48.8213L32.5963 50.0055C32.2759 50.3258 32.2759 50.8453 32.5964 51.1656C32.9166 51.486 33.436 51.4859 33.7564 51.1656L34.9404 49.9814C35.4271 49.4948 35.6951 48.8477 35.6951 48.1595C35.6951 47.4714 35.4271 46.8243 34.9405 46.3377C34.4539 45.8511 33.8066 45.583 33.1184 45.583Z" fill="#2966FF"/>
<path d="M51.8597 0H44.2708C42.8502 0 41.6944 1.15577 41.6944 2.57644C41.6944 3.99711 42.8501 5.15287 44.2708 5.15287H45.2905L42.2801 8.16331C41.7934 8.64992 41.5254 9.29698 41.5254 9.98517C41.5254 10.6734 41.7934 11.3204 42.2801 11.807C42.7823 12.3093 43.4421 12.5604 44.1018 12.5604C44.7616 12.5604 45.4213 12.3093 45.9237 11.807L48.934 8.79659V9.8163C48.934 11.237 50.0898 12.3927 51.5105 12.3927C52.9311 12.3927 54.087 11.237 54.087 9.8163V2.2272C54.0871 0.999141 53.0879 0 51.8597 0ZM52.4465 9.81619C52.4465 10.3322 52.0266 10.752 51.5106 10.752C50.9945 10.752 50.5747 10.3322 50.5747 9.81619V6.81603C50.5747 6.48419 50.3749 6.18516 50.0683 6.05817C49.7618 5.93119 49.409 6.00152 49.1743 6.23602L44.7637 10.6469C44.3986 11.0119 43.8048 11.0117 43.4401 10.6469C43.2634 10.4701 43.1659 10.2351 43.1659 9.98517C43.1659 9.73525 43.2634 9.5002 43.4401 9.32345L47.851 4.91258C48.0856 4.67797 48.1557 4.32513 48.0287 4.01866C47.9018 3.71208 47.6026 3.51225 47.2709 3.51225H44.2707C43.7547 3.51225 43.3349 3.09247 43.3349 2.57644C43.3349 2.06041 43.7549 1.64062 44.2708 1.64062H51.8597C52.1832 1.64062 52.4464 1.90378 52.4464 2.2272V9.81619H52.4465Z" fill="#2966FF"/>
<path d="M10.7086 5.15287H11.7283C13.149 5.15287 14.3047 3.99711 14.3047 2.57644C14.3047 1.15577 13.149 0 11.7283 0H4.13942C2.91125 0 1.91211 0.999141 1.91211 2.2272V3.41841C1.91211 3.87144 2.27939 4.23872 2.73242 4.23872C3.18545 4.23872 3.55273 3.87144 3.55273 3.41841V2.2272C3.55273 1.90367 3.81589 1.64062 4.13931 1.64062H11.7282C12.2442 1.64062 12.664 2.06041 12.664 2.57644C12.664 3.09247 12.2442 3.51225 11.7282 3.51225H8.72825C8.39641 3.51225 8.09737 3.71208 7.97039 4.01866C7.84341 4.32523 7.91362 4.67797 8.14823 4.91258L12.5591 9.32345C12.924 9.68833 12.9239 10.282 12.5591 10.6469C12.1943 11.0118 11.6005 11.0118 11.2357 10.6469L6.8248 6.23602C6.59019 6.0013 6.23734 5.9313 5.93088 6.05817C5.6243 6.18516 5.42447 6.4843 5.42447 6.81603V9.81619C5.42447 10.3322 5.00469 10.752 4.48866 10.752C3.97263 10.752 3.55284 10.3322 3.55284 9.81619V7.36017C3.55284 6.90714 3.18556 6.53986 2.73253 6.53986C2.2795 6.53986 1.91222 6.90714 1.91222 7.36017V9.81608C1.91222 11.2368 3.06798 12.3925 4.48866 12.3925C5.90933 12.3925 7.06509 11.2368 7.06509 9.81608V8.79638L10.0755 11.8068C10.5778 12.3091 11.2375 12.5602 11.8973 12.5602C12.557 12.5602 13.2168 12.3091 13.7191 11.8068C14.7236 10.8022 14.7236 9.1677 13.7191 8.1632L10.7086 5.15287Z" fill="#2966FF"/>
</svg>
