<svg width="56" height="56" viewBox="0 0 56 56" fill="none" xmlns="http://www.w3.org/2000/svg">
<path d="M51.7237 6.11869C50.9652 3.73337 49.9373 2.02545 49.8937 1.95368C49.7252 1.67586 49.3781 1.53134 49.0638 1.60344C48.9824 1.62203 47.0412 2.07512 44.802 3.19344C41.779 4.70269 39.6673 6.71758 38.6945 9.01926C37.8848 10.9361 37.7685 13.2794 38.343 15.8682C37.1193 14.5016 35.7427 13.306 34.2421 12.2996C33.7838 11.3943 32.5723 9.1657 30.6782 6.83646C30.0543 6.06966 28.8543 7.03193 29.4846 7.80642C30.7609 9.37623 31.7215 10.9201 32.3223 11.9807L25.3167 10.615L18.6606 1.53615C19.3069 1.54512 19.9555 1.60761 20.6008 1.73418C22.6468 2.13472 24.6678 3.17678 26.6087 4.83086C27.3691 5.4791 28.3566 4.29926 27.6062 3.65999C25.4622 1.83287 23.2047 0.676745 20.8963 0.224611C17.3725 -0.464964 13.2626 0.440264 9.00976 2.84352C5.84002 4.63475 3.72034 6.60222 3.6319 6.68489C3.34832 6.94989 3.30314 7.43119 3.54058 7.74073C3.8514 8.37839 5.02932 10.6788 6.99006 13.1554C8.14587 14.6157 9.3648 15.8653 10.6257 16.8923C10.2675 17.1926 9.91883 17.5066 9.58141 17.837C7.77929 19.5997 6.3995 21.679 5.49363 23.9522C4.69286 25.9606 4.2622 28.1213 4.23816 30.3484C4.19843 33.9901 5.25362 37.5024 7.29031 40.5061C9.27989 43.44 12.0613 45.6927 15.3335 47.0203C16.2493 47.391 16.8284 45.9667 15.9119 45.595C14.7263 45.114 13.6125 44.4978 12.5852 43.765C12.7165 43.0363 13.0213 40.4139 11.2794 37.6991C11.0355 37.3194 11.7645 35.8281 12.1997 34.9373C12.6489 34.0193 13.1126 33.0701 13.3292 32.1764C13.5593 31.227 13.3004 30.4301 12.581 29.8709C12.0529 29.4604 11.3617 29.248 10.7526 29.0605C10.3569 28.9388 9.90826 28.801 9.74804 28.6674C9.41799 28.3908 8.87902 27.369 8.44579 26.5483C7.96514 25.638 7.50756 24.7715 7.04037 24.238C8.09171 21.7412 9.7804 19.5318 11.8953 17.8415C13.8272 19.1575 16.0321 20.0656 18.3757 20.2495C15.6578 22.3554 14.7785 25.0448 16.0353 27.6282C17.5029 30.6448 20.5236 30.1628 23.1887 29.7382C23.6498 29.6645 24.1269 29.5886 24.5838 29.5316C24.7553 29.5101 24.8069 29.5569 24.8415 29.5873C25.425 30.1064 25.4077 32.5856 25.3952 34.3961C25.3782 36.9003 25.3622 39.2657 26.295 40.4802C26.7708 41.0993 27.4408 41.4159 28.2262 41.4159C28.6969 41.4159 29.2084 41.3024 29.7448 41.0723C32.0644 40.079 34.4757 37.0893 34.1078 34.7239C33.7864 32.6558 33.5736 31.2895 34.0751 30.1881C34.5388 29.1688 35.6597 28.2252 37.8671 27.021C38.1315 28.2114 38.2648 29.4499 38.251 30.7204C38.2039 35.0571 36.4704 39.1161 33.3702 42.149C29.9053 45.5386 25.0357 47.2125 20.2186 46.6816C19.2371 46.5752 19.0676 48.1024 20.0503 48.2107C25.3231 48.7913 30.6542 46.9584 34.4455 43.2487C37.8399 39.9281 39.7375 35.4849 39.7891 30.7367C39.8577 24.4411 36.6274 18.8637 31.71 15.6507C32.7261 14.9262 33.483 14.2997 33.9027 13.936C35.6956 15.2222 37.2859 16.8068 38.609 18.6528C41.7851 23.0854 43.0447 28.4889 42.1565 33.869C40.322 44.9749 29.7948 52.5189 18.6869 50.6838C13.3065 49.7952 8.59448 46.8652 5.41833 42.4326C2.24186 38.0003 0.982228 32.5962 1.87079 27.2164C2.03037 26.2484 0.513752 25.9943 0.353535 26.9658C-0.602322 32.7513 0.752797 38.5624 4.16767 43.3288C7.58318 48.0947 12.6509 51.2458 18.4363 52.2017C19.6463 52.4013 20.8575 52.5 22.0604 52.5C26.6074 52.5 31.0307 51.0882 34.7999 48.3872C39.5671 44.9717 42.7185 39.905 43.6737 34.1196C44.3739 29.8802 43.832 25.6271 42.1491 21.7812C42.9259 21.5521 44.2476 21.1073 45.6954 20.3844C48.7177 18.8752 50.8297 16.8603 51.8022 14.5586C52.7757 12.2563 52.7485 9.33777 51.7237 6.11869ZM7.08523 27.2661C7.65752 28.3511 8.19874 29.3765 8.7611 29.8469C9.1594 30.1798 9.71375 30.3503 10.3005 30.5307C11.8036 30.9928 11.9783 31.2196 11.8341 31.814C11.6572 32.5449 11.2304 33.4178 10.818 34.2615C10.0236 35.8867 9.27348 37.421 9.98452 38.5297C10.9929 40.1011 11.1656 41.6482 11.1483 42.6104C6.56741 38.4797 4.70215 31.9553 6.40847 26.0254C6.6347 26.4131 6.87246 26.8636 7.08523 27.2661ZM44.2957 12.1522L42.11 6.85537C43.1735 5.86074 44.4075 5.1122 45.4586 4.58509C46.3539 4.13584 47.2056 3.80002 47.8887 3.56194L44.2957 12.1522ZM49.3067 4.15827C49.612 4.81452 49.9661 5.66079 50.2686 6.61728C50.6003 7.66703 50.9047 8.96799 50.9652 10.325L45.8431 12.4383L49.3067 4.15827ZM40.1112 9.61815C40.338 9.08175 40.6312 8.58443 40.9699 8.12525L43.4581 14.1542L41.2253 19.4933C40.9116 18.8278 40.5421 17.9536 40.2288 16.9606C39.5997 14.9723 39.0691 12.0839 40.1112 9.61815ZM45.0385 18.9928C44.1768 19.4254 43.3546 19.7529 42.6849 19.989L45.0019 14.4497L50.8999 12.016C50.8143 12.6767 50.6512 13.3317 50.3856 13.9597C49.3438 16.4255 46.9028 18.0581 45.0385 18.9928ZM17.3058 18.5551C17.0341 18.5019 16.7659 18.4368 16.5015 18.3628L25.0135 12.1233L32.0224 13.4893C29.4692 15.501 23.2556 19.7208 17.3058 18.5551ZM9.52662 13.7431C7.70623 11.7811 6.37194 9.6832 5.60578 8.33994L14.5251 10.0789L9.52662 13.7431ZM11.1019 3.48183L14.8337 8.57193L5.85668 6.82204C6.98685 5.92963 8.85243 4.58989 11.1019 3.48183ZM17.0588 9.0058L12.5345 2.83455C13.889 2.27796 15.3428 1.83992 16.8332 1.6451L23.0919 10.1815L17.0588 9.0058ZM16.58 10.4795L22.9589 11.7228L14.7721 17.7235C13.2283 17.0106 11.8389 15.9855 10.6231 14.846L16.58 10.4795ZM37.4493 25.4983C34.6766 26.9755 33.3189 28.1358 32.6748 29.5511C31.983 31.0709 32.2365 32.7023 32.5873 34.9601C32.7947 36.2915 31.2124 38.7707 29.1391 39.6586C28.372 39.987 27.8257 39.9483 27.5145 39.5429C26.9035 38.7476 26.9201 36.3405 26.9333 34.4067C26.9515 31.731 26.9676 29.4204 25.8637 28.4382C25.4666 28.0851 24.9588 27.9358 24.3945 28.005C23.9109 28.0653 23.4203 28.1434 22.9464 28.2191C20.1192 28.6696 18.3402 28.85 17.4186 26.9553C15.9254 23.8865 18.948 21.6133 20.3169 20.7786C20.5957 20.6087 20.8543 20.4085 21.0946 20.1854C24.4031 19.79 27.5293 18.3705 30.3151 16.5924C33.6554 18.5881 36.2195 21.7463 37.4493 25.4983Z" fill="#2966FF"/>
</svg>
