<svg width="20" height="20" viewBox="0 0 20 20" fill="none" xmlns="http://www.w3.org/2000/svg">
<path d="M6.66667 14.6645C6.94281 14.6645 7.16667 14.4406 7.16667 14.1645C7.16667 13.8883 6.94281 13.6645 6.66667 13.6645V14.6645ZM2.5 5.00068H3V5.00068L2.5 5.00068ZM12 7.5C12 7.77614 12.2239 8 12.5 8C12.7761 8 13 7.77614 13 7.5H12ZM5.00067 2.5V2H5.00066L5.00067 2.5ZM15.4173 7.50135V8.00135H15.4173L15.4173 7.50135ZM17.5 9.58399H17H17.5ZM15.4218 11.6667V12.1667H15.422L15.4218 11.6667ZM7.49635 11.6667V11.1667L7.49603 11.1667L7.49635 11.6667ZM6.66662 12.5L7.16662 12.5L7.16661 12.4982L6.66662 12.5ZM6.66667 16.6667H7.16667V16.6667L6.66667 16.6667ZM6.66667 13.6645H4.58333V14.6645H6.66667V13.6645ZM4.58333 13.6645C3.70888 13.6645 3 12.9556 3 12.0811H2C2 13.5079 3.1566 14.6645 4.58333 14.6645V13.6645ZM3 12.0811V5.00068H2V12.0811H3ZM13 7.5V3.33333H12V7.5H13ZM13 3.33333C13 2.59695 12.403 2 11.6667 2V3C11.8508 3 12 3.14924 12 3.33333H13ZM11.6667 2H5.00067V3H11.6667V2ZM5.00066 2C4.20484 2 3.4416 2.31615 2.87887 2.87888L3.58598 3.58599C3.96118 3.21079 4.47006 3 5.00067 3L5.00066 2ZM2.87887 2.87888C2.31614 3.44162 2 4.20486 2 5.00068L3 5.00068C3 4.47007 3.21078 3.96119 3.58598 3.58599L2.87887 2.87888ZM2 5.00068C2 6.65791 3.34344 8.00135 5.00067 8.00135V7.00135C3.89573 7.00135 3 6.10562 3 5.00068H2ZM5.00067 8.00135H15.4173V7.00135H5.00067V8.00135ZM15.4173 8.00135C15.8371 8.00134 16.2396 8.16808 16.5364 8.46489L17.2436 7.75778C16.7592 7.27344 16.1023 7.00134 15.4173 7.00135L15.4173 8.00135ZM16.5364 8.46489C16.8333 8.76169 17 9.16425 17 9.58399H18C18 8.89903 17.7279 8.24212 17.2436 7.75778L16.5364 8.46489ZM17 9.58492C17.0008 10.0041 16.8349 10.4063 16.5388 10.703L17.2467 11.4094C17.7303 10.9247 18.0013 10.2677 18 9.58306L17 9.58492ZM16.5388 10.703C16.2427 10.9997 15.8408 11.1665 15.4217 11.1667L15.422 12.1667C16.1066 12.1665 16.7631 11.894 17.2467 11.4094L16.5388 10.703ZM15.4218 11.1667H7.49635V12.1667H15.4218V11.1667ZM7.49603 11.1667C7.14252 11.1669 6.80363 11.3078 6.5542 11.5583L7.26284 12.2639C7.32476 12.2017 7.4089 12.1667 7.49667 12.1667L7.49603 11.1667ZM6.5542 11.5583C6.30477 11.8088 6.16531 12.1483 6.16662 12.5018L7.16661 12.4982C7.16629 12.4104 7.20091 12.3261 7.26284 12.2639L6.5542 11.5583ZM6.16662 12.5L6.16667 16.6667L7.16667 16.6667L7.16662 12.5L6.16662 12.5ZM6.16667 16.6667C6.16667 17.403 6.76362 18 7.5 18V17C7.31591 17 7.16667 16.8508 7.16667 16.6667H6.16667ZM7.5 18H15.4167V17H7.5V18ZM15.4167 18C16.8434 18 18 16.8434 18 15.4167H17C17 16.2911 16.2911 17 15.4167 17V18ZM18 15.4167V9.58399H17V15.4167H18Z" fill="#011F3A"/>
</svg>
